<?xml version="1.0" encoding="utf-8" ?><svg xmlns="http://www.w3.org/2000/svg" xmlns:xlink="http://www.w3.org/1999/xlink" width="367" height="367" viewBox="0 0 367 367"><path fill="#E7ECE6" d="M0 0L367 0L367 367L0 367L0 0Z"/><defs><linearGradient id="gradient_0" gradientUnits="userSpaceOnUse" x1="40.750137" y1="234.19801" x2="300.90842" y2="240.03595"><stop offset="0" stop-color="#8BB154"/><stop offset="1" stop-color="#B7DB72"/></linearGradient></defs><path fill="url(#gradient_0)" d="M172.594 204.75C174.884 203.946 180.663 201.043 183.217 199.895C189.736 197.015 196.308 194.256 202.929 191.62C227.802 181.865 254.267 174.391 280.499 169.562C286.54 168.45 297.05 165.701 300.773 171.66C304.619 177.817 302.047 192.365 300.864 199.063C294.178 236.911 271.364 271.13 239.786 292.831C233.227 297.324 214.875 309.044 206.514 308.122C204.522 307.903 202.658 305.926 201.54 304.25C201.391 303.935 201.254 303.615 201.128 303.291C195.769 289.313 219.831 290.424 224.412 280.185C223.978 273.937 219.711 266.758 216.171 261.741C204.808 245.641 189.006 234.421 172.301 224.471C156.736 233.46 141.764 244.621 131.08 259.252C128.083 263.356 120.189 275.999 121.138 280.79C122.229 286.296 136.91 289.705 141.378 292.714C143.362 294.05 144.836 295.852 145.292 298.242C145.753 300.66 145.309 303.119 143.878 305.136C142.702 306.794 140.931 308.131 138.876 308.405C130.79 309.484 105.857 293.423 98.9084 288.131C68.3652 264.72 48.2002 230.282 42.7297 192.19C41.4679 182.838 38.7782 169.524 51.6993 168.083C57.8805 168.043 72.5755 171.103 78.8347 172.507C111.538 179.841 142.401 190.161 172.594 204.75Z"/><path fill="#E7ECE6" d="M59.2517 186.15C85.1327 188.972 132.513 203.052 155.294 215.316C146.064 219.964 131.408 232.779 124.432 240.402C118.238 247.031 113.012 254.503 108.91 262.595C107.409 265.579 106.268 268.656 104.781 271.562C103.566 270.181 101.552 268.617 100.148 267.349C76.923 246.391 62.3435 217.238 59.2517 186.15Z"/><path fill="#E7ECE6" d="M285.286 186.405L285.36 186.446C286.238 188.339 283.271 201.456 282.639 203.901C277.6 224.235 267.605 243.006 253.547 258.538C249.312 263.187 244.917 266.832 240.76 271.213C237.211 261.056 228.668 249.23 221.526 241.325C215.865 235.019 209.624 229.259 202.885 224.123C198.95 221.141 194.46 218.196 190.386 215.296C212.822 204.352 238.162 196.369 262.432 190.625C268.887 189.098 278.748 186.988 285.286 186.405Z"/><defs><linearGradient id="gradient_1" gradientUnits="userSpaceOnUse" x1="114.7877" y1="128.85869" x2="275.68784" y2="113.18277"><stop offset="0" stop-color="#2C5746"/><stop offset="1" stop-color="#59925D"/></linearGradient></defs><path fill="url(#gradient_1)" d="M256.116 60.1187C262.902 60.1858 264.655 60.444 271.347 61.8652C271.345 67.1824 271.237 72.405 270.239 77.6393C264.182 109.394 239.734 133.622 206.817 133.748C206.22 142.575 200.926 155.928 195.893 163.202C189.386 172.763 179.615 180.994 167.992 183.189C145.591 187.418 120.208 170.833 116.064 148.153C122.356 143.536 132.765 141.528 140.466 142.003C153.552 142.81 163.839 146.776 172.718 156.378C161.252 160.618 152.946 161.882 140.604 160.076C157.916 176.375 175.293 169.009 186.575 150.917C190.598 143.563 192.373 138.154 193.937 129.824C197.902 127.649 203.621 126.1 207.674 123.751C216.984 118.355 224.391 104.527 228.513 95.0571C216.438 101.853 207.888 106.737 198.057 117.191C193.203 110.052 187.485 103.28 180.673 97.9567C177.398 95.3973 173.94 93.0784 170.609 90.5671C172.193 93.5719 173.699 96.4353 175.377 99.3955C180.118 107.761 185.745 115.532 185.752 125.507C184.034 125.094 182.353 124.54 180.727 123.848C171.241 119.747 163.07 110.752 159.486 101.151C154.724 88.3946 156 76.7129 161.354 64.5508C175.764 67.6054 189.54 77.9394 195.43 91.4802C196.752 94.5187 197.64 97.4209 198.751 100.516C207.68 75.2955 229.732 60.9602 256.116 60.1187Z"/></svg>